<mxfile host="app.diagrams.net" modified="2024-06-14T02:37:04.777Z" agent="Mozilla/5.0 (Windows NT 10.0; Win64; x64) AppleWebKit/537.36 (KHTML, like Gecko) Chrome/125.0.0.0 Safari/537.36" etag="2SC62B2Lj9-Lo7sni71y" version="24.4.9" type="github">
  <diagram name="PÃ¡gina-1" id="xz1MHRLzBQCngzPm0szQ">
    <mxGraphModel dx="882" dy="556" grid="1" gridSize="10" guides="1" tooltips="1" connect="1" arrows="1" fold="1" page="1" pageScale="1" pageWidth="827" pageHeight="1169" math="0" shadow="0">
      <root>
        <mxCell id="0" />
        <mxCell id="1" parent="0" />
        <mxCell id="IJp2hC7sP0gjeWcthxYP-4" value="" style="edgeStyle=orthogonalEdgeStyle;rounded=0;orthogonalLoop=1;jettySize=auto;html=1;" edge="1" parent="1" source="IJp2hC7sP0gjeWcthxYP-1" target="IJp2hC7sP0gjeWcthxYP-3">
          <mxGeometry relative="1" as="geometry" />
        </mxCell>
        <mxCell id="IJp2hC7sP0gjeWcthxYP-1" value="i&amp;lt;data_hub.size()" style="rhombus;whiteSpace=wrap;html=1;" vertex="1" parent="1">
          <mxGeometry x="380" y="130" width="120" height="80" as="geometry" />
        </mxCell>
        <mxCell id="IJp2hC7sP0gjeWcthxYP-22" value="V" style="edgeStyle=orthogonalEdgeStyle;rounded=0;orthogonalLoop=1;jettySize=auto;html=1;exitX=0;exitY=0.5;exitDx=0;exitDy=0;entryX=0.5;entryY=0;entryDx=0;entryDy=0;" edge="1" parent="1" source="IJp2hC7sP0gjeWcthxYP-3" target="IJp2hC7sP0gjeWcthxYP-5">
          <mxGeometry relative="1" as="geometry" />
        </mxCell>
        <mxCell id="IJp2hC7sP0gjeWcthxYP-3" value="&lt;font style=&quot;font-size: 8px;&quot;&gt;data_hub[i].year == find_year &amp;amp;&amp;amp; data_hub[i].month == find_month &amp;amp;&amp;amp; data_hub[i].day == find_day&lt;/font&gt;" style="rhombus;whiteSpace=wrap;html=1;" vertex="1" parent="1">
          <mxGeometry x="357.5" y="240" width="165" height="110" as="geometry" />
        </mxCell>
        <mxCell id="IJp2hC7sP0gjeWcthxYP-12" value="" style="edgeStyle=orthogonalEdgeStyle;rounded=0;orthogonalLoop=1;jettySize=auto;html=1;" edge="1" parent="1" source="IJp2hC7sP0gjeWcthxYP-5" target="IJp2hC7sP0gjeWcthxYP-11">
          <mxGeometry relative="1" as="geometry">
            <Array as="points">
              <mxPoint x="440" y="490" />
              <mxPoint x="440" y="490" />
            </Array>
          </mxGeometry>
        </mxCell>
        <mxCell id="IJp2hC7sP0gjeWcthxYP-5" value="&quot;data_hub[i].event&quot; + &quot;\n&quot;" style="rounded=0;whiteSpace=wrap;html=1;" vertex="1" parent="1">
          <mxGeometry x="260" y="370" width="110" height="40" as="geometry" />
        </mxCell>
        <mxCell id="IJp2hC7sP0gjeWcthxYP-17" style="edgeStyle=orthogonalEdgeStyle;rounded=0;orthogonalLoop=1;jettySize=auto;html=1;entryX=1;entryY=0.5;entryDx=0;entryDy=0;" edge="1" parent="1" source="IJp2hC7sP0gjeWcthxYP-11" target="IJp2hC7sP0gjeWcthxYP-1">
          <mxGeometry relative="1" as="geometry">
            <Array as="points">
              <mxPoint x="540" y="520" />
              <mxPoint x="540" y="170" />
            </Array>
          </mxGeometry>
        </mxCell>
        <mxCell id="IJp2hC7sP0gjeWcthxYP-11" value="++i" style="rounded=0;whiteSpace=wrap;html=1;" vertex="1" parent="1">
          <mxGeometry x="382.5" y="460" width="115" height="40" as="geometry" />
        </mxCell>
        <mxCell id="IJp2hC7sP0gjeWcthxYP-19" value="" style="edgeStyle=orthogonalEdgeStyle;rounded=0;orthogonalLoop=1;jettySize=auto;html=1;" edge="1" parent="1" source="IJp2hC7sP0gjeWcthxYP-18" target="IJp2hC7sP0gjeWcthxYP-1">
          <mxGeometry relative="1" as="geometry" />
        </mxCell>
        <mxCell id="IJp2hC7sP0gjeWcthxYP-18" value="i=0" style="rounded=0;whiteSpace=wrap;html=1;" vertex="1" parent="1">
          <mxGeometry x="380" y="70" width="120" height="40" as="geometry" />
        </mxCell>
      </root>
    </mxGraphModel>
  </diagram>
</mxfile>
